<svg width="246" height="128" viewBox="0 0 246 128" fill="none" xmlns="http://www.w3.org/2000/svg">
<path d="M4.6044 25.8251V13.4005H0V7.56289H4.6044V0.287994H12.2109V7.56289H19.1483V13.4005H12.2109V25.6135C12.2109 28.0561 13.4875 29.4405 16.0406 29.4405C17.3699 29.4405 18.4792 29.2289 19.2011 28.9643V34.8636C18.039 35.2869 15.9789 35.5514 13.8748 35.5514C7.76497 35.5514 4.6044 32.2623 4.6044 25.8339V25.8251Z" fill="#DAD4D4"/>
<path d="M35.6907 6.91919C44.8467 6.91919 49.6271 13.1888 49.6271 21.2045V22.9592H28.6476C28.9206 27.1037 31.5353 30.2341 35.9724 30.2341C39.5292 30.2341 41.4132 28.6381 42.3552 26.5658H49.2398C47.9104 32.033 42.7426 35.8072 36.0252 35.8072C26.7548 35.8072 21.3669 29.4846 21.3669 21.3632C21.3669 13.2417 27.2478 6.91919 35.6907 6.91919ZM42.3552 17.9153C41.8534 14.4675 39.4675 12.0778 35.6907 12.0778C31.9139 12.0778 29.528 14.5733 28.8589 17.9153H42.3464H42.3552Z" fill="#DAD4D4"/>
<path d="M53.7914 7.55408H61.0634V13.7708C61.8998 9.89087 64.5057 7.23663 69.0573 7.23663C69.8936 7.23663 70.7212 7.28954 71.2758 7.44827V14.3528C70.7212 14.2999 70.1666 14.2999 69.4446 14.2999C64.3384 14.2999 61.3979 17.3245 61.3979 22.9063V35.1723H53.7914V7.55408Z" fill="#DAD4D4"/>
<path d="M84.323 18.3915L91.3133 17.8624V16.8571C91.3133 14.0971 89.7022 12.3423 86.3743 12.3423C83.3194 12.3423 81.4354 13.9913 81.1009 16.1164H73.8817C74.7709 10.6492 79.5426 6.92801 86.3743 6.92801C94.5355 6.92801 98.867 11.0725 98.867 17.3333V35.1811H91.5422V31.4069C90.4329 33.7966 87.2723 35.816 82.9408 35.816C76.831 35.816 72.8957 32.421 72.8957 27.1566C72.8957 21.8923 76.8398 18.9294 84.3319 18.3915H84.323ZM84.9921 30.869C88.8746 30.869 91.3221 28.5323 91.3221 24.5465V22.6859L85.8285 23.1092C82.3862 23.3737 80.2205 24.3349 80.2205 26.9362C80.2205 29.273 81.9372 30.869 84.9921 30.869Z" fill="#DAD4D4"/>
<path d="M111.747 7.55409V11.9102C113.191 9.04434 116.299 6.91919 120.736 6.91919C128.448 6.91919 133.95 13.2946 133.95 21.3632C133.95 29.4317 128.509 35.8072 120.797 35.8072C116.413 35.8072 113.358 33.682 111.976 30.8161V44.9427H104.369V7.55409H111.747ZM119.186 29.7492C123.623 29.7492 126.405 25.7105 126.405 21.3544C126.405 16.9982 123.632 12.9596 119.186 12.9596C114.74 12.9596 111.967 16.6279 111.967 21.3544C111.967 26.0808 114.855 29.7492 119.186 29.7492Z" fill="#DAD4D4"/>
<path d="M150.598 6.91919C159.754 6.91919 164.535 13.1888 164.535 21.2045V22.9592H143.555C143.837 27.1037 146.443 30.2341 150.88 30.2341C154.437 30.2341 156.321 28.6381 157.263 26.5658H164.147C162.818 32.033 157.65 35.8072 150.942 35.8072C141.671 35.8072 136.283 29.4846 136.283 21.3632C136.283 13.2417 142.164 6.91919 150.607 6.91919H150.598ZM157.263 17.9153C156.761 14.4675 154.375 12.0778 150.598 12.0778C146.821 12.0778 144.436 14.5733 143.775 17.9153H157.263Z" fill="#DAD4D4"/>
<path d="M168.417 7.55408H176.024V23.5412C176.024 27.042 177.467 29.5992 181.077 29.5992C184.687 29.5992 186.623 27.3154 186.623 23.5412V7.55408H194.177V35.1722H186.958V30.9748C185.681 33.8407 182.961 35.8071 178.691 35.8071C171.868 35.8071 168.426 31.2394 168.426 24.4407V7.55408H168.417Z" fill="#DAD4D4"/>
<path d="M201.951 25.8251V13.4005H197.346V7.56289H201.951V0.287994H209.557V7.56289H216.495V13.4005H209.557V25.6135C209.557 28.0561 210.834 29.4405 213.387 29.4405C214.716 29.4405 215.826 29.2289 216.548 28.9643V34.8636C215.385 35.2869 213.325 35.5514 211.221 35.5514C205.111 35.5514 201.951 32.2623 201.951 25.8339V25.8251Z" fill="#DAD4D4"/>
<path d="M231.092 18.3915L238.082 17.8624V16.8571C238.082 14.0971 236.471 12.3423 233.143 12.3423C230.088 12.3423 228.204 13.9913 227.869 16.1164H220.65C221.539 10.6492 226.311 6.92801 233.143 6.92801C241.304 6.92801 245.635 11.0725 245.635 17.3333V35.1811H238.311V31.4069C237.201 33.7966 234.032 35.816 229.709 35.816C223.6 35.816 219.664 32.421 219.664 27.1566C219.664 21.8923 223.608 18.9294 231.1 18.3915H231.092ZM231.761 30.869C235.643 30.869 238.091 28.5323 238.091 24.5465V22.6859L232.597 23.1092C229.155 23.3737 226.989 24.3349 226.989 26.9362C226.989 29.273 228.706 30.869 231.761 30.869Z" fill="#DAD4D4"/>
<path d="M2.94934 66.7233H9.10321V70.2946C10.2213 67.7991 12.4575 66.1942 16.1023 66.1942C21.8423 66.1942 24.774 70.0301 24.774 75.7442V89.9324H18.3824V76.5466C18.3824 73.6014 17.0795 71.4586 14.0422 71.4586C11.0048 71.4586 9.33211 73.3809 9.33211 76.5466V89.9324H2.94934V66.7321V66.7233Z" fill="#DAD4D4"/>
<path d="M38.7719 75.8235L44.6529 75.3738V74.5273C44.6529 72.2081 43.2971 70.7355 40.4974 70.7355C37.9355 70.7355 36.342 72.12 36.0691 73.9012H30.0033C30.7516 69.307 34.7574 66.1854 40.4974 66.1854C47.3556 66.1854 50.9916 69.6685 50.9916 74.9329V89.9236H44.8377V86.7579C43.9045 88.7685 41.2458 90.4615 37.6098 90.4615C32.4772 90.4615 29.1669 87.6045 29.1669 83.1866C29.1669 78.7688 32.4772 76.2733 38.7719 75.8235ZM39.3353 86.3082C42.6016 86.3082 44.6529 84.3418 44.6529 80.9997V79.4389L40.0308 79.7917C37.1432 80.0121 35.3208 80.8146 35.3208 83.0014C35.3208 84.9679 36.7646 86.2994 39.3353 86.2994V86.3082Z" fill="#DAD4D4"/>
<path d="M63.9158 78.1427L78.2837 58.6901H85.4676V78.0104H89.8519V83.0103H85.4676V89.9236H79.4018V83.0103H63.9158V78.1427ZM79.4018 78.0104V65.1184L70.2106 78.0104H79.4018Z" fill="#DAD4D4"/>
<path d="M100.813 73.8571L103.841 72.0759V57.3497H110.189V68.4164L113.877 66.1854V72.12L110.189 74.3509V89.9236H103.841V78.0104L100.813 79.8358V73.8571Z" fill="#DAD4D4"/>
<path d="M125.859 75.8235L131.74 75.3738V74.5273C131.74 72.2081 130.385 70.7355 127.594 70.7355C125.032 70.7355 123.438 72.12 123.165 73.9012H117.1C117.848 69.307 121.854 66.1854 127.594 66.1854C134.452 66.1854 138.088 69.6685 138.088 74.9329V89.9236H131.934V86.7579C131.001 88.7685 128.342 90.4615 124.706 90.4615C119.574 90.4615 116.263 87.6045 116.263 83.1866C116.263 78.7688 119.574 76.2733 125.868 75.8235H125.859ZM126.423 86.3082C129.689 86.3082 131.74 84.3418 131.74 80.9997V79.4389L127.118 79.7917C124.231 80.0121 122.408 80.8146 122.408 83.0014C122.408 84.9679 123.852 86.2994 126.423 86.2994V86.3082Z" fill="#DAD4D4"/>
<path d="M149.278 66.7233V70.3828C150.493 67.9755 153.098 66.1854 156.831 66.1854C163.311 66.1854 167.933 71.538 167.933 78.319C167.933 85.1001 163.364 90.4527 156.875 90.4527C153.187 90.4527 150.625 88.6715 149.463 86.2553V98.1244H143.071V66.7145H149.278V66.7233ZM155.528 85.3735C159.261 85.3735 161.594 81.9785 161.594 78.3279C161.594 74.6772 159.261 71.2734 155.528 71.2734C151.796 71.2734 149.463 74.3509 149.463 78.3279C149.463 82.3048 151.892 85.3735 155.528 85.3735Z" fill="#DAD4D4"/>
<path d="M180.672 75.8235L186.553 75.3738V74.5273C186.553 72.2081 185.197 70.7355 182.406 70.7355C179.845 70.7355 178.251 72.12 177.978 73.9012H171.912C172.661 69.307 176.666 66.1854 182.406 66.1854C189.265 66.1854 192.901 69.6685 192.901 74.9329V89.9236H186.747V86.7579C185.814 88.7685 183.155 90.4615 179.519 90.4615C174.386 90.4615 171.076 87.6045 171.076 83.1866C171.076 78.7688 174.386 76.2733 180.681 75.8235H180.672ZM181.236 86.3082C184.502 86.3082 186.553 84.3418 186.553 80.9997V79.4389L181.931 79.7917C179.043 80.0121 177.221 80.8146 177.221 83.0014C177.221 84.9679 178.665 86.2994 181.236 86.2994V86.3082Z" fill="#DAD4D4"/>
<path d="M208.8 66.1854C215.333 66.1854 219.576 70.0653 220.316 75.3738H214.206C213.51 73.0988 211.785 71.3616 208.844 71.3616C204.926 71.3616 202.778 74.6596 202.778 78.319C202.778 81.9785 204.926 85.3206 208.844 85.3206C211.785 85.3206 213.51 83.5393 214.206 81.2643H220.316C219.567 86.5728 215.324 90.4527 208.8 90.4527C201.246 90.4527 196.44 84.8709 196.44 78.319C196.44 71.7672 201.246 66.1854 208.8 66.1854Z" fill="#DAD4D4"/>
<path d="M224.101 57.3497H230.493V70.1976C231.47 67.7462 233.847 66.1854 237.254 66.1854C242.994 66.1854 245.926 69.9772 245.926 75.6913V89.9236H239.534V76.4937C239.534 73.5926 238.231 71.4498 235.194 71.4498C232.157 71.4498 230.484 73.328 230.484 76.5378V89.9236H224.093V57.3497H224.101Z" fill="#DAD4D4"/>
<path d="M80.2379 115.152H88.7776V115.946H81.1799V121.016H88.4959V121.81H81.1799V127.744H80.2379V115.152Z" fill="#DAD4D4"/>
<path d="M91.0667 122.903V115.152H92.0087V122.886C92.0087 125.654 93.7782 127.206 96.1817 127.206C98.5851 127.206 100.355 125.663 100.355 122.886V115.152H101.297V122.903C101.297 126.016 99.1926 127.991 96.1817 127.991C93.1708 127.991 91.0667 126.016 91.0667 122.903Z" fill="#DAD4D4"/>
<path d="M104.475 115.152H105.417L114.071 126.519V115.152H114.978V127.744H114.036L105.364 116.378V127.744H104.484V115.152H104.475Z" fill="#DAD4D4"/>
<path d="M118.2 115.152H122.003C126.344 115.152 128.985 118.027 128.985 121.448C128.985 124.87 126.352 127.744 122.003 127.744H118.2V115.152ZM121.81 126.951C125.833 126.951 128.034 124.393 128.034 121.448C128.034 118.503 125.833 115.946 121.81 115.946H119.125V126.959H121.81V126.951Z" fill="#DAD4D4"/>
<path d="M135.2 115.152H136.177L141.557 127.744H140.579L139.109 124.182H132.26L130.772 127.744H129.812L135.191 115.152H135.2ZM138.775 123.388L135.693 115.999L132.594 123.388H138.783H138.775Z" fill="#DAD4D4"/>
<path d="M142.569 121.448C142.569 118.177 144.92 114.896 148.714 114.896C151.399 114.896 153.248 116.351 153.996 118.494H153.037C152.359 116.872 150.95 115.69 148.714 115.69C145.421 115.69 143.502 118.644 143.502 121.448C143.502 124.252 145.421 127.206 148.714 127.206C150.95 127.206 152.359 126.016 153.037 124.402H153.996C153.248 126.545 151.399 128 148.714 128C144.92 128 142.569 124.729 142.569 121.448Z" fill="#DAD4D4"/>
<path d="M156.136 123.811V122.841H157.06V123.811C157.06 125.734 158.231 127.215 160.238 127.215C162.246 127.215 163.434 125.795 163.434 123.741V115.161H164.376V123.741C164.376 126.316 162.721 128 160.238 128C157.571 128 156.136 126.007 156.136 123.811Z" fill="#DAD4D4"/>
<path d="M171.648 115.152H172.625L178.005 127.744H177.027L175.557 124.182H168.708L167.22 127.744H166.26L171.639 115.152H171.648ZM175.223 123.388L172.141 115.999L169.042 123.388H175.231H175.223Z" fill="#DAD4D4"/>
</svg>
