<svg width="293" height="166" viewBox="0 0 293 166" fill="none" xmlns="http://www.w3.org/2000/svg">
<g clip-path="url(#clip0_162_1228)">
<path d="M4.6044 63.8251V51.4005H0V45.5629H4.6044V38.288H12.2109V45.5629H19.1483V51.4005H12.2109V63.6135C12.2109 66.0561 13.4875 67.4405 16.0406 67.4405C17.3699 67.4405 18.4792 67.2289 19.2011 66.9643V72.8636C18.039 73.2869 15.9789 73.5514 13.8748 73.5514C7.76497 73.5514 4.6044 70.2623 4.6044 63.8339V63.8251Z" fill="#DAD4D4"/>
<path d="M35.6907 44.9192C44.8467 44.9192 49.6271 51.1888 49.6271 59.2045V60.9592H28.6476C28.9206 65.1037 31.5353 68.2341 35.9724 68.2341C39.5292 68.2341 41.4132 66.6381 42.3552 64.5658H49.2398C47.9104 70.033 42.7426 73.8072 36.0252 73.8072C26.7548 73.8072 21.3669 67.4846 21.3669 59.3632C21.3669 51.2417 27.2478 44.9192 35.6907 44.9192ZM42.3552 55.9153C41.8534 52.4675 39.4675 50.0778 35.6907 50.0778C31.9139 50.0778 29.528 52.5733 28.8589 55.9153H42.3464H42.3552Z" fill="#DAD4D4"/>
<path d="M53.7914 45.5541H61.0634V51.7708C61.8998 47.8909 64.5057 45.2366 69.0573 45.2366C69.8936 45.2366 70.7212 45.2895 71.2758 45.4483V52.3528C70.7212 52.2999 70.1666 52.2999 69.4446 52.2999C64.3384 52.2999 61.3979 55.3245 61.3979 60.9063V73.1723H53.7914V45.5541Z" fill="#DAD4D4"/>
<path d="M84.323 56.3915L91.3133 55.8624V54.8572C91.3133 52.0971 89.7022 50.3423 86.3743 50.3423C83.3194 50.3423 81.4354 51.9913 81.1009 54.1165H73.8817C74.7709 48.6493 79.5426 44.928 86.3743 44.928C94.5355 44.928 98.867 49.0725 98.867 55.3334V73.1811H91.5422V69.407C90.4329 71.7967 87.2723 73.816 82.9408 73.816C76.831 73.816 72.8957 70.4211 72.8957 65.1567C72.8957 59.8923 76.8398 56.9294 84.3319 56.3915H84.323ZM84.9921 68.8691C88.8746 68.8691 91.3221 66.5323 91.3221 62.5465V60.6859L85.8285 61.1092C82.3862 61.3737 80.2205 62.3349 80.2205 64.9362C80.2205 67.273 81.9372 68.8691 84.9921 68.8691Z" fill="#DAD4D4"/>
<path d="M111.747 45.5541V49.9102C113.191 47.0443 116.299 44.9192 120.736 44.9192C128.448 44.9192 133.95 51.2946 133.95 59.3632C133.95 67.4317 128.509 73.8072 120.797 73.8072C116.413 73.8072 113.358 71.682 111.976 68.8161V82.9427H104.369V45.5541H111.747ZM119.186 67.7492C123.623 67.7492 126.405 63.7105 126.405 59.3544C126.405 54.9982 123.632 50.9596 119.186 50.9596C114.74 50.9596 111.967 54.6279 111.967 59.3544C111.967 64.0808 114.855 67.7492 119.186 67.7492Z" fill="#DAD4D4"/>
<path d="M150.598 44.9192C159.754 44.9192 164.535 51.1888 164.535 59.2045V60.9592H143.555C143.837 65.1037 146.443 68.2341 150.88 68.2341C154.437 68.2341 156.321 66.6381 157.263 64.5658H164.147C162.818 70.033 157.65 73.8072 150.942 73.8072C141.671 73.8072 136.283 67.4846 136.283 59.3632C136.283 51.2417 142.164 44.9192 150.607 44.9192H150.598ZM157.263 55.9153C156.761 52.4675 154.375 50.0778 150.598 50.0778C146.821 50.0778 144.436 52.5733 143.775 55.9153H157.263Z" fill="#DAD4D4"/>
<path d="M168.417 45.5541H176.024V61.5412C176.024 65.042 177.467 67.5992 181.077 67.5992C184.687 67.5992 186.623 65.3154 186.623 61.5412V45.5541H194.177V73.1722H186.958V68.9748C185.681 71.8407 182.961 73.8071 178.691 73.8071C171.868 73.8071 168.426 69.2394 168.426 62.4407V45.5541H168.417Z" fill="#DAD4D4"/>
<path d="M201.951 63.8251V51.4005H197.346V45.5629H201.951V38.288H209.557V45.5629H216.495V51.4005H209.557V63.6135C209.557 66.0561 210.834 67.4405 213.387 67.4405C214.716 67.4405 215.826 67.2289 216.548 66.9643V72.8636C215.385 73.2869 213.325 73.5514 211.221 73.5514C205.111 73.5514 201.951 70.2623 201.951 63.8339V63.8251Z" fill="#DAD4D4"/>
<path d="M231.092 56.3915L238.082 55.8624V54.8572C238.082 52.0971 236.471 50.3423 233.143 50.3423C230.088 50.3423 228.204 51.9913 227.869 54.1165H220.65C221.539 48.6493 226.311 44.928 233.143 44.928C241.304 44.928 245.635 49.0725 245.635 55.3334V73.1811H238.311V69.407C237.201 71.7967 234.032 73.816 229.709 73.816C223.6 73.816 219.664 70.4211 219.664 65.1567C219.664 59.8923 223.608 56.9294 231.1 56.3915H231.092ZM231.761 68.8691C235.643 68.8691 238.091 66.5323 238.091 62.5465V60.6859L232.597 61.1092C229.155 61.3737 226.989 62.3349 226.989 64.9362C226.989 67.273 228.706 68.8691 231.761 68.8691Z" fill="#DAD4D4"/>
<path d="M2.94934 104.723H9.10321V108.295C10.2213 105.799 12.4575 104.194 16.1023 104.194C21.8423 104.194 24.774 108.03 24.774 113.744V127.932H18.3824V114.547C18.3824 111.601 17.0795 109.459 14.0422 109.459C11.0048 109.459 9.33211 111.381 9.33211 114.547V127.932H2.94934V104.732V104.723Z" fill="#DAD4D4"/>
<path d="M38.7719 113.824L44.6529 113.374V112.527C44.6529 110.208 43.2971 108.736 40.4974 108.736C37.9355 108.736 36.342 110.12 36.0691 111.901H30.0033C30.7516 107.307 34.7574 104.185 40.4974 104.185C47.3556 104.185 50.9916 107.669 50.9916 112.933V127.924H44.8377V124.758C43.9045 126.768 41.2458 128.462 37.6098 128.462C32.4772 128.462 29.1669 125.604 29.1669 121.187C29.1669 116.769 32.4772 114.273 38.7719 113.824ZM39.3353 124.308C42.6016 124.308 44.6529 122.342 44.6529 119V117.439L40.0308 117.792C37.1432 118.012 35.3208 118.815 35.3208 121.001C35.3208 122.968 36.7646 124.299 39.3353 124.299V124.308Z" fill="#DAD4D4"/>
<path d="M63.9158 116.143L78.2837 96.6901H85.4676V116.01H89.8519V121.01H85.4676V127.924H79.4018V121.01H63.9158V116.143ZM79.4018 116.01V103.118L70.2106 116.01H79.4018Z" fill="#DAD4D4"/>
<path d="M100.813 111.857L103.841 110.076V95.3497H110.189V106.416L113.877 104.185V110.12L110.189 112.351V127.924H103.841V116.01L100.813 117.836V111.857Z" fill="#DAD4D4"/>
<path d="M125.859 113.824L131.74 113.374V112.527C131.74 110.208 130.385 108.736 127.594 108.736C125.032 108.736 123.438 110.12 123.165 111.901H117.1C117.848 107.307 121.854 104.185 127.594 104.185C134.452 104.185 138.088 107.669 138.088 112.933V127.924H131.934V124.758C131.001 126.768 128.342 128.462 124.706 128.462C119.574 128.462 116.263 125.604 116.263 121.187C116.263 116.769 119.574 114.273 125.868 113.824H125.859ZM126.423 124.308C129.689 124.308 131.74 122.342 131.74 119V117.439L127.118 117.792C124.231 118.012 122.408 118.815 122.408 121.001C122.408 122.968 123.852 124.299 126.423 124.299V124.308Z" fill="#DAD4D4"/>
<path d="M149.278 104.723V108.383C150.493 105.975 153.098 104.185 156.831 104.185C163.311 104.185 167.933 109.538 167.933 116.319C167.933 123.1 163.364 128.453 156.875 128.453C153.187 128.453 150.625 126.671 149.463 124.255V136.124H143.071V104.715H149.278V104.723ZM155.528 123.374C159.261 123.374 161.594 119.979 161.594 116.328C161.594 112.677 159.261 109.273 155.528 109.273C151.796 109.273 149.463 112.351 149.463 116.328C149.463 120.305 151.892 123.374 155.528 123.374Z" fill="#DAD4D4"/>
<path d="M180.672 113.824L186.553 113.374V112.527C186.553 110.208 185.197 108.736 182.406 108.736C179.845 108.736 178.251 110.12 177.978 111.901H171.912C172.661 107.307 176.666 104.185 182.406 104.185C189.265 104.185 192.901 107.669 192.901 112.933V127.924H186.747V124.758C185.814 126.768 183.155 128.462 179.519 128.462C174.386 128.462 171.076 125.604 171.076 121.187C171.076 116.769 174.386 114.273 180.681 113.824H180.672ZM181.236 124.308C184.502 124.308 186.553 122.342 186.553 119V117.439L181.931 117.792C179.043 118.012 177.221 118.815 177.221 121.001C177.221 122.968 178.665 124.299 181.236 124.299V124.308Z" fill="#DAD4D4"/>
<path d="M208.8 104.185C215.333 104.185 219.576 108.065 220.316 113.374H214.206C213.51 111.099 211.785 109.362 208.844 109.362C204.926 109.362 202.778 112.66 202.778 116.319C202.778 119.979 204.926 123.321 208.844 123.321C211.785 123.321 213.51 121.539 214.206 119.264H220.316C219.567 124.573 215.324 128.453 208.8 128.453C201.246 128.453 196.44 122.871 196.44 116.319C196.44 109.767 201.246 104.185 208.8 104.185Z" fill="#DAD4D4"/>
<path d="M224.101 95.3497H230.493V108.198C231.47 105.746 233.847 104.185 237.254 104.185C242.994 104.185 245.926 107.977 245.926 113.691V127.924H239.534V114.494C239.534 111.593 238.231 109.45 235.194 109.45C232.157 109.45 230.484 111.328 230.484 114.538V127.924H224.093V95.3497H224.101Z" fill="#DAD4D4"/>
<path d="M260.611 16.6661C265.419 16.6661 269.318 12.9353 269.318 8.33307C269.318 3.73084 265.419 0 260.611 0C255.802 0 251.904 3.73084 251.904 8.33307C251.904 12.9353 255.802 16.6661 260.611 16.6661Z" fill="#DAD4D4"/>
<path d="M284.293 16.6661C289.102 16.6661 293 12.9353 293 8.33307C293 3.73084 289.102 0 284.293 0C279.484 0 275.586 3.73084 275.586 8.33307C275.586 12.9353 279.484 16.6661 284.293 16.6661Z" fill="#DAD4D4"/>
<path d="M284.293 40.8629C289.102 40.8629 293 37.1321 293 32.5298C293 27.9276 289.102 24.1968 284.293 24.1968C279.484 24.1968 275.586 27.9276 275.586 32.5298C275.586 37.1321 279.484 40.8629 284.293 40.8629Z" fill="#DAD4D4"/>
<path d="M255.637 21.7101C243.602 21.7101 243.602 36.7449 255.637 36.7449H255.654C255.681 48.2348 271.378 48.226 271.378 36.7184V21.6837L255.645 21.7101H255.637Z" fill="#DAD4D4"/>
<path d="M80.2379 153.152H88.7776V153.946H81.1799V159.016H88.4959V159.81H81.1799V165.744H80.2379V153.152Z" fill="#DAD4D4"/>
<path d="M91.0667 160.903V153.152H92.0087V160.886C92.0087 163.654 93.7782 165.206 96.1817 165.206C98.5851 165.206 100.355 163.663 100.355 160.886V153.152H101.297V160.903C101.297 164.016 99.1926 165.991 96.1817 165.991C93.1708 165.991 91.0667 164.016 91.0667 160.903Z" fill="#DAD4D4"/>
<path d="M104.475 153.152H105.417L114.071 164.519V153.152H114.978V165.744H114.036L105.364 154.378V165.744H104.484V153.152H104.475Z" fill="#DAD4D4"/>
<path d="M118.2 153.152H122.003C126.344 153.152 128.985 156.027 128.985 159.448C128.985 162.87 126.352 165.744 122.003 165.744H118.2V153.152ZM121.81 164.951C125.833 164.951 128.034 162.393 128.034 159.448C128.034 156.503 125.833 153.946 121.81 153.946H119.125V164.959H121.81V164.951Z" fill="#DAD4D4"/>
<path d="M135.2 153.152H136.177L141.557 165.744H140.579L139.109 162.182H132.26L130.772 165.744H129.812L135.191 153.152H135.2ZM138.775 161.388L135.693 153.999L132.594 161.388H138.783H138.775Z" fill="#DAD4D4"/>
<path d="M142.569 159.448C142.569 156.177 144.92 152.896 148.714 152.896C151.399 152.896 153.248 154.351 153.996 156.494H153.037C152.359 154.872 150.95 153.69 148.714 153.69C145.421 153.69 143.502 156.644 143.502 159.448C143.502 162.252 145.421 165.206 148.714 165.206C150.95 165.206 152.359 164.016 153.037 162.402H153.996C153.248 164.545 151.399 166 148.714 166C144.92 166 142.569 162.729 142.569 159.448Z" fill="#DAD4D4"/>
<path d="M156.136 161.811V160.841H157.06V161.811C157.06 163.734 158.231 165.215 160.238 165.215C162.246 165.215 163.434 163.795 163.434 161.741V153.161H164.376V161.741C164.376 164.316 162.721 166 160.238 166C157.571 166 156.136 164.007 156.136 161.811Z" fill="#DAD4D4"/>
<path d="M171.648 153.152H172.625L178.005 165.744H177.027L175.557 162.182H168.708L167.22 165.744H166.26L171.639 153.152H171.648ZM175.223 161.388L172.141 153.999L169.042 161.388H175.231H175.223Z" fill="#DAD4D4"/>
</g>
<defs>
<clipPath id="clip0_162_1228">
<rect width="293" height="166" fill="white"/>
</clipPath>
</defs>
</svg>
