<svg width="47" height="46" viewBox="0 0 47 46" fill="none" xmlns="http://www.w3.org/2000/svg">
<path d="M14.6107 16.6661C19.4194 16.6661 23.3177 12.9353 23.3177 8.33307C23.3177 3.73084 19.4194 0 14.6107 0C9.80192 0 5.90369 3.73084 5.90369 8.33307C5.90369 12.9353 9.80192 16.6661 14.6107 16.6661Z" fill="#DAD4D4"/>
<path d="M38.2931 16.6661C43.1018 16.6661 47 12.9353 47 8.33307C47 3.73084 43.1018 0 38.2931 0C33.4843 0 29.5861 3.73084 29.5861 8.33307C29.5861 12.9353 33.4843 16.6661 38.2931 16.6661Z" fill="#DAD4D4"/>
<path d="M38.2931 40.8629C43.1018 40.8629 47 37.1321 47 32.5298C47 27.9276 43.1018 24.1968 38.2931 24.1968C33.4843 24.1968 29.5861 27.9276 29.5861 32.5298C29.5861 37.1321 33.4843 40.8629 38.2931 40.8629Z" fill="#DAD4D4"/>
<path d="M9.63653 21.7101C-2.39829 21.7101 -2.39829 36.7449 9.63653 36.7449H9.65415C9.68057 48.2348 25.3778 48.226 25.3778 36.7184V21.6837L9.64534 21.7101H9.63653Z" fill="#DAD4D4"/>
</svg>
