<svg width="36" height="36" viewBox="0 0 36 36" fill="none" xmlns="http://www.w3.org/2000/svg">
<path d="M10.8683 12.9108C14.5995 12.9108 17.6243 10.0206 17.6243 6.45541C17.6243 2.89018 14.5995 0 10.8683 0C7.13706 0 4.1123 2.89018 4.1123 6.45541C4.1123 10.0206 7.13706 12.9108 10.8683 12.9108Z" fill="black"/>
<path d="M29.2438 12.9108C32.975 12.9108 35.9997 10.0206 35.9997 6.45541C35.9997 2.89018 32.975 0 29.2438 0C25.5125 0 22.4878 2.89018 22.4878 6.45541C22.4878 10.0206 25.5125 12.9108 29.2438 12.9108Z" fill="black"/>
<path d="M29.2438 31.6554C32.975 31.6554 35.9997 28.7652 35.9997 25.2C35.9997 21.6348 32.975 18.7446 29.2438 18.7446C25.5125 18.7446 22.4878 21.6348 22.4878 25.2C22.4878 28.7652 25.5125 31.6554 29.2438 31.6554Z" fill="black"/>
<path d="M7.00849 16.8182C-2.32965 16.8182 -2.32965 28.4653 7.00849 28.4653H7.02215C7.04264 37.3662 19.2225 37.3594 19.2225 28.4448V16.7977L7.01532 16.8182H7.00849Z" fill="black"/>
</svg>
